<svg width="128" height="32" viewBox="0 0 128 32" fill="none" xmlns="http://www.w3.org/2000/svg">
<rect width="128" height="32" rx="4" fill="url(#paint0_linear_101_11)"/>
<path d="M33.7666 19.5146V21H29.1138V19.5146H33.7666ZM29.7295 11.7578V21H27.8252V11.7578H29.7295ZM38.4512 19.4512V16.3916C38.4512 16.1715 38.4152 15.9832 38.3433 15.8267C38.2713 15.6659 38.1592 15.541 38.0068 15.4521C37.8587 15.3633 37.6662 15.3188 37.4292 15.3188C37.2261 15.3188 37.0505 15.3548 36.9023 15.4268C36.7542 15.4945 36.64 15.5939 36.5596 15.7251C36.4792 15.8521 36.439 16.0023 36.439 16.1758H34.6108C34.6108 15.8838 34.6785 15.6066 34.814 15.3442C34.9494 15.0819 35.1462 14.8512 35.4043 14.6523C35.6624 14.4492 35.9692 14.2905 36.3247 14.1763C36.6844 14.062 37.0864 14.0049 37.5308 14.0049C38.064 14.0049 38.5379 14.0938 38.9526 14.2715C39.3674 14.4492 39.6932 14.7158 39.9302 15.0713C40.1714 15.4268 40.292 15.8711 40.292 16.4043V19.3433C40.292 19.7199 40.3153 20.0288 40.3618 20.27C40.4084 20.507 40.4761 20.7144 40.5649 20.8921V21H38.7178C38.6289 20.8138 38.5612 20.5811 38.5146 20.3018C38.4723 20.0182 38.4512 19.7347 38.4512 19.4512ZM38.6924 16.8169L38.7051 17.8516H37.6831C37.4419 17.8516 37.2324 17.8791 37.0547 17.9341C36.877 17.9891 36.731 18.0674 36.6167 18.1689C36.5024 18.2663 36.4178 18.3805 36.3628 18.5117C36.312 18.6429 36.2866 18.7868 36.2866 18.9434C36.2866 19.0999 36.3226 19.2417 36.3945 19.3687C36.4665 19.4914 36.5701 19.5887 36.7056 19.6606C36.841 19.7284 36.9997 19.7622 37.1816 19.7622C37.4567 19.7622 37.6958 19.7072 37.8989 19.5972C38.1021 19.4871 38.2586 19.3517 38.3687 19.1909C38.4829 19.0301 38.5422 18.8778 38.5464 18.7339L39.0288 19.5083C38.9611 19.6818 38.868 19.8617 38.7495 20.0479C38.6353 20.234 38.4893 20.4097 38.3115 20.5747C38.1338 20.7355 37.9201 20.8688 37.6704 20.9746C37.4207 21.0762 37.1245 21.127 36.7817 21.127C36.3459 21.127 35.9502 21.0402 35.5947 20.8667C35.2435 20.689 34.9642 20.4456 34.7568 20.1367C34.5537 19.8236 34.4521 19.4681 34.4521 19.0703C34.4521 18.7106 34.5199 18.3911 34.6553 18.1118C34.7907 17.8325 34.9896 17.5977 35.252 17.4072C35.5186 17.2126 35.8507 17.0666 36.2485 16.9692C36.6463 16.8677 37.1076 16.8169 37.6323 16.8169H38.6924ZM43.6372 20.2256L45.459 14.1318H47.4204L44.6592 22.0347C44.5999 22.2082 44.5195 22.3944 44.418 22.5933C44.3206 22.7922 44.1873 22.9805 44.0181 23.1582C43.853 23.3402 43.6436 23.4883 43.3896 23.6025C43.14 23.7168 42.8332 23.7739 42.4692 23.7739C42.2957 23.7739 42.154 23.7633 42.0439 23.7422C41.9339 23.721 41.8027 23.6914 41.6504 23.6533V22.314C41.6969 22.314 41.7456 22.314 41.7964 22.314C41.8472 22.3182 41.8958 22.3203 41.9424 22.3203C42.1836 22.3203 42.3804 22.2928 42.5327 22.2378C42.6851 22.1828 42.8078 22.0981 42.9009 21.9839C42.994 21.8739 43.068 21.73 43.123 21.5522L43.6372 20.2256ZM42.8755 14.1318L44.3672 19.1084L44.6274 21.0444L43.3833 21.1777L40.9141 14.1318H42.8755ZM47.7568 17.6357V17.5024C47.7568 16.9989 47.8288 16.5355 47.9727 16.1123C48.1165 15.6849 48.326 15.3146 48.6011 15.0015C48.8761 14.6883 49.2147 14.445 49.6167 14.2715C50.0187 14.0938 50.48 14.0049 51.0005 14.0049C51.521 14.0049 51.9844 14.0938 52.3906 14.2715C52.7969 14.445 53.1375 14.6883 53.4126 15.0015C53.6919 15.3146 53.9035 15.6849 54.0474 16.1123C54.1912 16.5355 54.2632 16.9989 54.2632 17.5024V17.6357C54.2632 18.1351 54.1912 18.5985 54.0474 19.0259C53.9035 19.4491 53.6919 19.8193 53.4126 20.1367C53.1375 20.4499 52.799 20.6932 52.397 20.8667C51.995 21.0402 51.5337 21.127 51.0132 21.127C50.4927 21.127 50.0293 21.0402 49.623 20.8667C49.221 20.6932 48.8804 20.4499 48.6011 20.1367C48.326 19.8193 48.1165 19.4491 47.9727 19.0259C47.8288 18.5985 47.7568 18.1351 47.7568 17.6357ZM49.585 17.5024V17.6357C49.585 17.9235 49.6104 18.1922 49.6611 18.4419C49.7119 18.6916 49.7923 18.9116 49.9023 19.1021C50.0166 19.2882 50.1647 19.4342 50.3467 19.54C50.5286 19.6458 50.7508 19.6987 51.0132 19.6987C51.2671 19.6987 51.485 19.6458 51.667 19.54C51.849 19.4342 51.995 19.2882 52.105 19.1021C52.215 18.9116 52.2954 18.6916 52.3462 18.4419C52.4012 18.1922 52.4287 17.9235 52.4287 17.6357V17.5024C52.4287 17.2231 52.4012 16.9608 52.3462 16.7153C52.2954 16.4657 52.2129 16.2456 52.0986 16.0552C51.9886 15.8605 51.8426 15.7082 51.6606 15.5981C51.4787 15.4881 51.2586 15.4331 51.0005 15.4331C50.7424 15.4331 50.5223 15.4881 50.3403 15.5981C50.1626 15.7082 50.0166 15.8605 49.9023 16.0552C49.7923 16.2456 49.7119 16.4657 49.6611 16.7153C49.6104 16.9608 49.585 17.2231 49.585 17.5024ZM59.4492 19.356V14.1318H61.2773V21H59.5571L59.4492 19.356ZM59.6523 17.9468L60.1919 17.9341C60.1919 18.3911 60.139 18.8164 60.0332 19.21C59.9274 19.5993 59.7687 19.9378 59.5571 20.2256C59.3455 20.5091 59.0789 20.7313 58.7573 20.8921C58.4357 21.0487 58.057 21.127 57.6211 21.127C57.2868 21.127 56.9779 21.0804 56.6943 20.9873C56.415 20.89 56.1738 20.7397 55.9707 20.5366C55.7718 20.3293 55.6152 20.0648 55.501 19.7432C55.391 19.4173 55.3359 19.0259 55.3359 18.5688V14.1318H57.1641V18.5815C57.1641 18.7847 57.1873 18.9561 57.2339 19.0957C57.2847 19.2354 57.3545 19.3496 57.4434 19.4385C57.5322 19.5273 57.6359 19.5908 57.7544 19.6289C57.8771 19.667 58.0125 19.686 58.1606 19.686C58.5373 19.686 58.8335 19.6099 59.0493 19.4575C59.2694 19.3052 59.4238 19.0978 59.5127 18.8354C59.6058 18.5688 59.6523 18.2726 59.6523 17.9468ZM66.0381 14.1318V15.4268H62.0391V14.1318H66.0381ZM63.0293 12.437H64.8574V18.9307C64.8574 19.1296 64.8828 19.2819 64.9336 19.3877C64.9886 19.4935 65.069 19.5675 65.1748 19.6099C65.2806 19.6479 65.4139 19.667 65.5747 19.667C65.689 19.667 65.7905 19.6628 65.8794 19.6543C65.9725 19.6416 66.0508 19.6289 66.1143 19.6162L66.1206 20.9619C65.964 21.0127 65.7948 21.0529 65.6128 21.0825C65.4308 21.1121 65.2298 21.127 65.0098 21.127C64.6077 21.127 64.2565 21.0614 63.9561 20.9302C63.6598 20.7948 63.4313 20.5789 63.2705 20.2827C63.1097 19.9865 63.0293 19.5972 63.0293 19.1147V12.437ZM72.2461 14.1318V21H70.4116V14.1318H72.2461ZM70.2974 12.3418C70.2974 12.0752 70.3905 11.8551 70.5767 11.6816C70.7629 11.5081 71.0125 11.4214 71.3257 11.4214C71.6346 11.4214 71.8822 11.5081 72.0684 11.6816C72.2588 11.8551 72.354 12.0752 72.354 12.3418C72.354 12.6084 72.2588 12.8285 72.0684 13.002C71.8822 13.1755 71.6346 13.2622 71.3257 13.2622C71.0125 13.2622 70.7629 13.1755 70.5767 13.002C70.3905 12.8285 70.2974 12.6084 70.2974 12.3418ZM75.5469 15.5981V21H73.7188V14.1318H75.4326L75.5469 15.5981ZM75.2803 17.3247H74.7852C74.7852 16.8169 74.8507 16.3599 74.9819 15.9536C75.1131 15.5431 75.2972 15.194 75.5342 14.9062C75.7712 14.6143 76.0526 14.3921 76.3784 14.2397C76.7085 14.0832 77.0767 14.0049 77.4829 14.0049C77.8045 14.0049 78.0986 14.0514 78.3652 14.1445C78.6318 14.2376 78.8604 14.3857 79.0508 14.5889C79.2454 14.792 79.3936 15.0607 79.4951 15.395C79.6009 15.7293 79.6538 16.1377 79.6538 16.6201V21H77.813V16.6138C77.813 16.3091 77.7707 16.0721 77.686 15.9028C77.6014 15.7336 77.4766 15.6151 77.3115 15.5474C77.1507 15.4754 76.9518 15.4395 76.7148 15.4395C76.4694 15.4395 76.2557 15.4881 76.0737 15.5854C75.896 15.6828 75.7479 15.8182 75.6294 15.9917C75.5151 16.161 75.4284 16.3599 75.3691 16.5884C75.3099 16.8169 75.2803 17.0623 75.2803 17.3247ZM86.2998 11.7578V21H84.3955V11.7578H86.2998ZM89.9814 15.7061V17.1914H85.7793V15.7061H89.9814ZM90.4258 11.7578V13.2495H85.7793V11.7578H90.4258ZM93.3457 14.1318V21H91.5112V14.1318H93.3457ZM91.397 12.3418C91.397 12.0752 91.4901 11.8551 91.6763 11.6816C91.8625 11.5081 92.1121 11.4214 92.4253 11.4214C92.7342 11.4214 92.9818 11.5081 93.168 11.6816C93.3584 11.8551 93.4536 12.0752 93.4536 12.3418C93.4536 12.6084 93.3584 12.8285 93.168 13.002C92.9818 13.1755 92.7342 13.2622 92.4253 13.2622C92.1121 13.2622 91.8625 13.1755 91.6763 13.002C91.4901 12.8285 91.397 12.6084 91.397 12.3418ZM99.2046 14.1318H100.861V20.7715C100.861 21.3978 100.722 21.9289 100.442 22.3647C100.167 22.8049 99.7822 23.137 99.2871 23.3613C98.792 23.5898 98.2165 23.7041 97.5605 23.7041C97.2728 23.7041 96.9681 23.666 96.6465 23.5898C96.3291 23.5137 96.0244 23.3952 95.7324 23.2344C95.4447 23.0736 95.2035 22.8704 95.0088 22.625L95.8149 21.5459C96.0265 21.7913 96.272 21.9818 96.5513 22.1172C96.8306 22.2568 97.1395 22.3267 97.478 22.3267C97.8081 22.3267 98.0874 22.2653 98.3159 22.1426C98.5444 22.0241 98.7201 21.8485 98.8428 21.6157C98.9655 21.3872 99.0269 21.11 99.0269 20.7842V15.7188L99.2046 14.1318ZM94.5835 17.6484V17.5151C94.5835 16.9904 94.647 16.5143 94.7739 16.0869C94.9051 15.6553 95.0892 15.285 95.3262 14.9761C95.5674 14.6672 95.8594 14.4281 96.2021 14.2588C96.5449 14.0895 96.9321 14.0049 97.3638 14.0049C97.8208 14.0049 98.2038 14.0895 98.5127 14.2588C98.8216 14.4281 99.0755 14.6693 99.2744 14.9824C99.4733 15.2913 99.6278 15.6574 99.7378 16.0806C99.8521 16.4995 99.9409 16.9587 100.004 17.458V17.75C99.9409 18.2282 99.8457 18.6725 99.7188 19.083C99.5918 19.4935 99.4246 19.8532 99.2173 20.1621C99.0099 20.4668 98.7518 20.7038 98.4429 20.873C98.1382 21.0423 97.7743 21.127 97.3511 21.127C96.9279 21.127 96.5449 21.0402 96.2021 20.8667C95.8636 20.6932 95.5737 20.4499 95.3325 20.1367C95.0913 19.8236 94.9051 19.4554 94.7739 19.0322C94.647 18.609 94.5835 18.1478 94.5835 17.6484ZM96.4116 17.5151V17.6484C96.4116 17.932 96.4391 18.1965 96.4941 18.4419C96.5492 18.6873 96.6338 18.9053 96.748 19.0957C96.8665 19.2819 97.0125 19.4279 97.186 19.5337C97.3638 19.6353 97.5732 19.686 97.8145 19.686C98.1488 19.686 98.4217 19.6162 98.6333 19.4766C98.8449 19.3327 99.0036 19.1359 99.1094 18.8862C99.2152 18.6366 99.2765 18.3488 99.2935 18.0229V17.1914C99.285 16.9248 99.249 16.6857 99.1855 16.4741C99.1221 16.2583 99.0332 16.0742 98.9189 15.9219C98.8047 15.7695 98.6566 15.651 98.4746 15.5664C98.2926 15.4818 98.0768 15.4395 97.8271 15.4395C97.5859 15.4395 97.3765 15.4945 97.1987 15.6045C97.0252 15.7103 96.8792 15.8563 96.7607 16.0425C96.6465 16.2287 96.5597 16.4487 96.5005 16.7026C96.4412 16.9523 96.4116 17.2231 96.4116 17.5151ZM104.111 15.5537V21H102.277V14.1318H103.997L104.111 15.5537ZM103.857 17.3247H103.35C103.35 16.8465 103.407 16.4064 103.521 16.0044C103.639 15.5981 103.811 15.2469 104.035 14.9507C104.264 14.6502 104.545 14.4175 104.879 14.2524C105.214 14.0874 105.601 14.0049 106.041 14.0049C106.346 14.0049 106.625 14.0514 106.879 14.1445C107.133 14.2334 107.351 14.3752 107.533 14.5698C107.719 14.7603 107.863 15.0099 107.964 15.3188C108.066 15.6235 108.117 15.9896 108.117 16.417V21H106.289V16.6201C106.289 16.307 106.246 16.0658 106.162 15.8965C106.077 15.7272 105.956 15.6087 105.8 15.541C105.647 15.4733 105.463 15.4395 105.248 15.4395C105.011 15.4395 104.803 15.4881 104.625 15.5854C104.452 15.6828 104.308 15.8182 104.194 15.9917C104.08 16.161 103.995 16.3599 103.94 16.5884C103.885 16.8169 103.857 17.0623 103.857 17.3247ZM107.945 17.1152L107.292 17.1978C107.292 16.7492 107.347 16.3324 107.457 15.9473C107.571 15.5622 107.738 15.2236 107.958 14.9316C108.182 14.6396 108.459 14.4132 108.79 14.2524C109.12 14.0874 109.5 14.0049 109.932 14.0049C110.262 14.0049 110.563 14.0535 110.833 14.1509C111.104 14.244 111.335 14.3942 111.525 14.6016C111.72 14.8047 111.868 15.0713 111.97 15.4014C112.076 15.7314 112.128 16.1356 112.128 16.6138V21H110.294V16.6138C110.294 16.2964 110.252 16.0552 110.167 15.8901C110.087 15.7209 109.968 15.6045 109.812 15.541C109.659 15.4733 109.477 15.4395 109.266 15.4395C109.046 15.4395 108.853 15.4839 108.688 15.5728C108.523 15.6574 108.385 15.7759 108.275 15.9282C108.165 16.0806 108.083 16.2583 108.028 16.4614C107.973 16.6603 107.945 16.8783 107.945 17.1152ZM117.251 19.4512V16.3916C117.251 16.1715 117.215 15.9832 117.143 15.8267C117.071 15.6659 116.959 15.541 116.807 15.4521C116.659 15.3633 116.466 15.3188 116.229 15.3188C116.026 15.3188 115.85 15.3548 115.702 15.4268C115.554 15.4945 115.44 15.5939 115.359 15.7251C115.279 15.8521 115.239 16.0023 115.239 16.1758H113.411C113.411 15.8838 113.478 15.6066 113.614 15.3442C113.749 15.0819 113.946 14.8512 114.204 14.6523C114.462 14.4492 114.769 14.2905 115.125 14.1763C115.484 14.062 115.886 14.0049 116.331 14.0049C116.864 14.0049 117.338 14.0938 117.752 14.2715C118.167 14.4492 118.493 14.7158 118.73 15.0713C118.971 15.4268 119.092 15.8711 119.092 16.4043V19.3433C119.092 19.7199 119.115 20.0288 119.162 20.27C119.208 20.507 119.276 20.7144 119.365 20.8921V21H117.518C117.429 20.8138 117.361 20.5811 117.314 20.3018C117.272 20.0182 117.251 19.7347 117.251 19.4512ZM117.492 16.8169L117.505 17.8516H116.483C116.242 17.8516 116.032 17.8791 115.854 17.9341C115.677 17.9891 115.531 18.0674 115.417 18.1689C115.302 18.2663 115.218 18.3805 115.163 18.5117C115.112 18.6429 115.086 18.7868 115.086 18.9434C115.086 19.0999 115.122 19.2417 115.194 19.3687C115.266 19.4914 115.37 19.5887 115.505 19.6606C115.641 19.7284 115.799 19.7622 115.981 19.7622C116.257 19.7622 116.496 19.7072 116.699 19.5972C116.902 19.4871 117.058 19.3517 117.168 19.1909C117.283 19.0301 117.342 18.8778 117.346 18.7339L117.829 19.5083C117.761 19.6818 117.668 19.8617 117.549 20.0479C117.435 20.234 117.289 20.4097 117.111 20.5747C116.934 20.7355 116.72 20.8688 116.47 20.9746C116.221 21.0762 115.924 21.127 115.582 21.127C115.146 21.127 114.75 21.0402 114.395 20.8667C114.043 20.689 113.764 20.4456 113.557 20.1367C113.354 19.8236 113.252 19.4681 113.252 19.0703C113.252 18.7106 113.32 18.3911 113.455 18.1118C113.59 17.8325 113.789 17.5977 114.052 17.4072C114.318 17.2126 114.651 17.0666 115.048 16.9692C115.446 16.8677 115.907 16.8169 116.432 16.8169H117.492Z" fill="white"/>
<path d="M9.25 21.5H13.75C14.3928 21.5 15.0211 21.3094 15.5556 20.9523C16.0901 20.5952 16.5066 20.0876 16.7526 19.4937C16.9986 18.8999 17.063 18.2464 16.9376 17.616C16.8122 16.9855 16.5026 16.4064 16.0481 15.9519C15.5936 15.4974 15.0145 15.1879 14.384 15.0624C13.7536 14.937 13.1001 15.0014 12.5063 15.2474C11.9124 15.4934 11.4048 15.9099 11.0477 16.4444C10.6906 16.9789 10.5 17.6072 10.5 18.25C10.5 20.5 9.25 21.5 9.25 21.5Z" stroke="white" stroke-linecap="round" stroke-linejoin="round"/>
<path d="M15.025 15.2625C16.225 13.6437 19.275 9.9375 22.0625 9.9375C22.0625 12.725 18.3563 15.775 16.7375 16.975" stroke="white" stroke-linecap="round" stroke-linejoin="round"/>
<path d="M16.3125 13.6625C17.1594 14.1404 17.8596 14.8406 18.3375 15.6875" stroke="white" stroke-linecap="round" stroke-linejoin="round"/>
<defs>
<linearGradient id="paint0_linear_101_11" x1="2" y1="16" x2="128" y2="16" gradientUnits="userSpaceOnUse">
<stop stop-color="#FF0000"/>
<stop offset="0.234375" stop-color="#E23F1B"/>
<stop offset="0.526042" stop-color="#8B1186"/>
<stop offset="0.75" stop-color="#1997B3"/>
<stop offset="1" stop-color="#108D2C"/>
</linearGradient>
</defs>
</svg>
