<?xml version="1.0" encoding="UTF-8" standalone="no"?><!DOCTYPE svg PUBLIC "-//W3C//DTD SVG 1.1//EN" "http://www.w3.org/Graphics/SVG/1.1/DTD/svg11.dtd"><svg width="135px" height="30px" viewBox="0 0 135 30" version="1.1" xmlns="http://www.w3.org/2000/svg" xmlns:xlink="http://www.w3.org/1999/xlink" xml:space="preserve" xmlns:serif="http://www.serif.com/" style="fill-rule:evenodd;clip-rule:evenodd;stroke-linejoin:round;stroke-miterlimit:1.41421;"><path d="M135,2.522c0,-1.392 -1.13,-2.522 -2.522,-2.522l-129.956,0c-1.392,0 -2.522,1.13 -2.522,2.522l0,24.956c0,1.392 1.13,2.522 2.522,2.522l129.956,0c1.392,0 2.522,-1.13 2.522,-2.522l0,-24.956Z" style="fill:#6a57d5;"/><path d="M19.135,7.885c3.926,0 7.115,3.188 7.115,7.115c0,3.927 -3.189,7.115 -7.115,7.115c-3.927,0 -7.115,-3.188 -7.115,-7.115c0,-3.927 3.188,-7.115 7.115,-7.115Zm-0.898,1.19c0.294,-0.043 0.593,-0.066 0.898,-0.066c3.306,0 5.991,2.684 5.991,5.991c0,3.307 -2.685,5.991 -5.991,5.991c-3.307,0 -5.992,-2.684 -5.992,-5.991c0,-0.305 0.023,-0.605 0.067,-0.897c0.629,0.558 1.456,0.897 2.363,0.897c1.966,0 3.562,-1.596 3.562,-3.561c0,-0.907 -0.339,-1.734 -0.898,-2.364Z" style="fill:#fff;"/><path d="M35.267,14.845c0.35,0 0.656,-0.043 0.919,-0.128c0.263,-0.085 0.481,-0.205 0.656,-0.358c0.176,-0.153 0.307,-0.336 0.394,-0.548c0.088,-0.212 0.132,-0.448 0.132,-0.706c0,-0.517 -0.171,-0.91 -0.512,-1.182c-0.342,-0.271 -0.858,-0.407 -1.55,-0.407l-1.247,0l0,3.329l1.208,0Zm4.451,4.924l-1.372,0c-0.271,0 -0.468,-0.105 -0.591,-0.315l-2.206,-3.184c-0.074,-0.11 -0.155,-0.189 -0.243,-0.237c-0.087,-0.048 -0.219,-0.072 -0.394,-0.072l-0.853,0l0,3.808l-1.537,0l0,-9.455l2.784,0c0.622,0 1.157,0.064 1.605,0.191c0.449,0.127 0.818,0.307 1.107,0.542c0.289,0.234 0.502,0.515 0.64,0.843c0.138,0.329 0.207,0.694 0.207,1.097c0,0.328 -0.049,0.634 -0.148,0.919c-0.098,0.285 -0.241,0.543 -0.427,0.775c-0.186,0.232 -0.414,0.433 -0.686,0.604c-0.271,0.171 -0.58,0.304 -0.926,0.4c0.189,0.114 0.351,0.274 0.486,0.48l2.554,3.604Z" style="fill:#fff;fill-rule:nonzero;"/><path d="M45.976,13.072l0,6.697l-0.854,0c-0.188,0 -0.309,-0.089 -0.361,-0.269l-0.105,-0.624c-0.14,0.149 -0.288,0.285 -0.443,0.407c-0.156,0.123 -0.321,0.228 -0.496,0.316c-0.175,0.087 -0.362,0.155 -0.561,0.203c-0.2,0.048 -0.413,0.072 -0.641,0.072c-0.367,0 -0.691,-0.061 -0.971,-0.183c-0.28,-0.123 -0.516,-0.296 -0.706,-0.519c-0.191,-0.223 -0.334,-0.492 -0.43,-0.804c-0.097,-0.313 -0.145,-0.658 -0.145,-1.035l0,-4.261l1.412,0l0,4.261c0,0.451 0.104,0.801 0.312,1.051c0.208,0.249 0.524,0.374 0.949,0.374c0.31,0 0.6,-0.071 0.87,-0.213c0.269,-0.142 0.522,-0.338 0.758,-0.588l0,-4.885l1.412,0Z" style="fill:#fff;fill-rule:nonzero;"/><path d="M49.016,13.959c0.144,-0.149 0.294,-0.284 0.449,-0.404c0.156,-0.121 0.321,-0.225 0.496,-0.312c0.175,-0.088 0.361,-0.156 0.558,-0.204c0.197,-0.048 0.412,-0.072 0.644,-0.072c0.367,0 0.69,0.061 0.968,0.184c0.278,0.122 0.512,0.295 0.703,0.519c0.19,0.223 0.333,0.491 0.43,0.804c0.096,0.313 0.144,0.658 0.144,1.034l0,4.261l-1.405,0l0,-4.261c0,-0.451 -0.104,-0.801 -0.312,-1.05c-0.208,-0.25 -0.524,-0.375 -0.949,-0.375c-0.315,0 -0.607,0.073 -0.876,0.217c-0.269,0.144 -0.522,0.341 -0.758,0.591l0,4.878l-1.412,0l0,-6.697l0.853,0c0.193,0 0.316,0.09 0.368,0.269l0.099,0.618Z" style="fill:#fff;fill-rule:nonzero;"/><path d="M59.803,13.072l0,6.697l-1.411,0l0,-6.697l1.411,0Zm0.237,-2.022c0,0.127 -0.025,0.247 -0.076,0.361c-0.05,0.114 -0.119,0.213 -0.207,0.299c-0.087,0.085 -0.189,0.153 -0.305,0.203c-0.116,0.051 -0.24,0.076 -0.371,0.076c-0.127,0 -0.246,-0.025 -0.358,-0.076c-0.111,-0.05 -0.209,-0.118 -0.292,-0.203c-0.083,-0.086 -0.15,-0.185 -0.2,-0.299c-0.051,-0.114 -0.076,-0.234 -0.076,-0.361c0,-0.131 0.025,-0.254 0.076,-0.368c0.05,-0.114 0.117,-0.213 0.2,-0.299c0.083,-0.085 0.181,-0.153 0.292,-0.203c0.112,-0.05 0.231,-0.076 0.358,-0.076c0.131,0 0.255,0.026 0.371,0.076c0.116,0.05 0.218,0.118 0.305,0.203c0.088,0.086 0.157,0.185 0.207,0.299c0.051,0.114 0.076,0.237 0.076,0.368Z" style="fill:#fff;fill-rule:nonzero;"/><path d="M62.902,13.959c0.145,-0.149 0.295,-0.284 0.45,-0.404c0.156,-0.121 0.321,-0.225 0.496,-0.312c0.175,-0.088 0.361,-0.156 0.558,-0.204c0.197,-0.048 0.411,-0.072 0.643,-0.072c0.368,0 0.691,0.061 0.969,0.184c0.278,0.122 0.512,0.295 0.702,0.519c0.191,0.223 0.334,0.491 0.431,0.804c0.096,0.313 0.144,0.658 0.144,1.034l0,4.261l-1.405,0l0,-4.261c0,-0.451 -0.104,-0.801 -0.312,-1.05c-0.208,-0.25 -0.524,-0.375 -0.949,-0.375c-0.315,0 -0.607,0.073 -0.876,0.217c-0.27,0.144 -0.522,0.341 -0.759,0.591l0,4.878l-1.411,0l0,-6.697l0.853,0c0.193,0 0.315,0.09 0.368,0.269l0.098,0.618Z" style="fill:#fff;fill-rule:nonzero;"/><rect x="72.482" y="10.314" width="1.543" height="9.455" style="fill:#fff;fill-rule:nonzero;"/><path d="M77.229,13.959c0.145,-0.149 0.294,-0.284 0.45,-0.404c0.155,-0.121 0.321,-0.225 0.496,-0.312c0.175,-0.088 0.361,-0.156 0.558,-0.204c0.197,-0.048 0.411,-0.072 0.643,-0.072c0.368,0 0.691,0.061 0.969,0.184c0.278,0.122 0.512,0.295 0.702,0.519c0.191,0.223 0.334,0.491 0.43,0.804c0.097,0.313 0.145,0.658 0.145,1.034l0,4.261l-1.405,0l0,-4.261c0,-0.451 -0.104,-0.801 -0.312,-1.05c-0.208,-0.25 -0.524,-0.375 -0.949,-0.375c-0.315,0 -0.607,0.073 -0.877,0.217c-0.269,0.144 -0.522,0.341 -0.758,0.591l0,4.878l-1.412,0l0,-6.697l0.854,0c0.193,0 0.315,0.09 0.368,0.269l0.098,0.618Z" style="fill:#fff;fill-rule:nonzero;"/><path d="M87.275,14.287c-0.035,0.061 -0.075,0.105 -0.118,0.131c-0.044,0.026 -0.099,0.04 -0.164,0.04c-0.075,0 -0.156,-0.023 -0.243,-0.069c-0.088,-0.046 -0.191,-0.098 -0.309,-0.155c-0.118,-0.057 -0.257,-0.108 -0.417,-0.154c-0.16,-0.046 -0.347,-0.069 -0.561,-0.069c-0.175,0 -0.334,0.021 -0.476,0.062c-0.143,0.042 -0.263,0.101 -0.361,0.178c-0.099,0.076 -0.174,0.166 -0.227,0.269c-0.052,0.103 -0.079,0.213 -0.079,0.331c0,0.158 0.048,0.289 0.145,0.394c0.096,0.105 0.223,0.196 0.381,0.273c0.157,0.077 0.337,0.145 0.538,0.207c0.201,0.061 0.407,0.127 0.617,0.197c0.21,0.07 0.416,0.151 0.617,0.243c0.202,0.092 0.381,0.204 0.539,0.338c0.157,0.133 0.284,0.295 0.381,0.486c0.096,0.19 0.144,0.421 0.144,0.692c0,0.316 -0.057,0.607 -0.171,0.874c-0.114,0.267 -0.28,0.499 -0.499,0.696c-0.219,0.197 -0.491,0.35 -0.817,0.459c-0.326,0.11 -0.699,0.164 -1.12,0.164c-0.232,0 -0.456,-0.02 -0.673,-0.062c-0.216,-0.042 -0.422,-0.098 -0.617,-0.171c-0.195,-0.072 -0.376,-0.158 -0.545,-0.259c-0.168,-0.101 -0.318,-0.21 -0.45,-0.328l0.329,-0.539c0.039,-0.065 0.088,-0.117 0.147,-0.154c0.06,-0.037 0.133,-0.056 0.22,-0.056c0.092,0 0.183,0.03 0.273,0.089c0.09,0.059 0.195,0.123 0.315,0.193c0.12,0.07 0.266,0.135 0.437,0.194c0.17,0.059 0.383,0.089 0.637,0.089c0.21,0 0.391,-0.025 0.545,-0.076c0.153,-0.05 0.28,-0.119 0.38,-0.207c0.101,-0.087 0.175,-0.187 0.224,-0.298c0.048,-0.112 0.072,-0.231 0.072,-0.358c0,-0.171 -0.048,-0.311 -0.145,-0.42c-0.096,-0.11 -0.224,-0.204 -0.384,-0.283c-0.16,-0.078 -0.341,-0.148 -0.545,-0.21c-0.203,-0.061 -0.41,-0.127 -0.62,-0.197c-0.21,-0.07 -0.417,-0.151 -0.621,-0.243c-0.203,-0.092 -0.385,-0.209 -0.545,-0.351c-0.159,-0.142 -0.287,-0.315 -0.384,-0.519c-0.096,-0.203 -0.144,-0.452 -0.144,-0.745c0,-0.267 0.053,-0.521 0.161,-0.762c0.107,-0.24 0.265,-0.453 0.472,-0.636c0.208,-0.184 0.464,-0.33 0.769,-0.437c0.304,-0.107 0.655,-0.161 1.053,-0.161c0.451,0 0.861,0.072 1.228,0.217c0.368,0.144 0.677,0.341 0.926,0.591l-0.315,0.512Z" style="fill:#fff;fill-rule:nonzero;"/><path d="M91.904,12.967c0.494,0 0.942,0.081 1.343,0.243c0.4,0.162 0.741,0.392 1.024,0.689c0.282,0.298 0.5,0.659 0.653,1.084c0.153,0.424 0.23,0.902 0.23,1.431c0,0.53 -0.077,1.007 -0.23,1.432c-0.153,0.424 -0.371,0.786 -0.653,1.086c-0.283,0.3 -0.624,0.531 -1.024,0.693c-0.401,0.162 -0.849,0.243 -1.343,0.243c-0.499,0 -0.949,-0.081 -1.349,-0.243c-0.401,-0.162 -0.743,-0.393 -1.028,-0.693c-0.285,-0.3 -0.503,-0.662 -0.657,-1.086c-0.153,-0.425 -0.229,-0.902 -0.229,-1.432c0,-0.529 0.076,-1.007 0.229,-1.431c0.154,-0.425 0.372,-0.786 0.657,-1.084c0.285,-0.297 0.627,-0.527 1.028,-0.689c0.4,-0.162 0.85,-0.243 1.349,-0.243Zm0,5.798c0.604,0 1.054,-0.203 1.349,-0.608c0.296,-0.404 0.443,-0.983 0.443,-1.736c0,-0.753 -0.147,-1.334 -0.443,-1.744c-0.295,-0.409 -0.745,-0.613 -1.349,-0.613c-0.613,0 -1.068,0.204 -1.366,0.613c-0.298,0.41 -0.446,0.991 -0.446,1.744c0,0.753 0.148,1.332 0.446,1.736c0.298,0.405 0.753,0.608 1.366,0.608Z" style="fill:#fff;fill-rule:nonzero;"/><path d="M96.506,19.769l0,-6.697l0.854,0c0.193,0 0.315,0.09 0.368,0.269l0.092,0.585c0.122,-0.14 0.249,-0.268 0.38,-0.384c0.132,-0.116 0.273,-0.217 0.424,-0.302c0.151,-0.086 0.313,-0.153 0.486,-0.201c0.173,-0.048 0.36,-0.072 0.561,-0.072c0.215,0 0.412,0.031 0.591,0.092c0.18,0.061 0.338,0.149 0.476,0.263c0.138,0.113 0.257,0.251 0.358,0.413c0.101,0.162 0.184,0.344 0.25,0.545c0.1,-0.232 0.227,-0.431 0.38,-0.597c0.154,-0.167 0.324,-0.302 0.512,-0.407c0.189,-0.105 0.389,-0.183 0.601,-0.233c0.213,-0.051 0.428,-0.076 0.647,-0.076c0.359,0 0.68,0.057 0.962,0.171c0.282,0.114 0.521,0.279 0.716,0.496c0.194,0.216 0.342,0.482 0.443,0.797c0.1,0.315 0.151,0.674 0.151,1.077l0,4.261l-1.412,0l0,-4.261c0,-0.473 -0.102,-0.828 -0.305,-1.067c-0.204,-0.238 -0.505,-0.358 -0.903,-0.358c-0.179,0 -0.348,0.031 -0.506,0.092c-0.157,0.061 -0.295,0.151 -0.413,0.269c-0.118,0.119 -0.211,0.266 -0.279,0.444c-0.068,0.177 -0.102,0.384 -0.102,0.62l0,4.261l-1.412,0l0,-4.261c0,-0.49 -0.098,-0.85 -0.295,-1.08c-0.197,-0.23 -0.486,-0.345 -0.867,-0.345c-0.262,0 -0.505,0.067 -0.729,0.201c-0.223,0.133 -0.429,0.316 -0.617,0.548l0,4.937l-1.412,0Z" style="fill:#fff;fill-rule:nonzero;"/><path d="M108.732,13.959c0.145,-0.149 0.295,-0.284 0.45,-0.404c0.155,-0.121 0.321,-0.225 0.496,-0.312c0.175,-0.088 0.361,-0.156 0.558,-0.204c0.197,-0.048 0.411,-0.072 0.643,-0.072c0.368,0 0.691,0.061 0.969,0.184c0.278,0.122 0.512,0.295 0.702,0.519c0.191,0.223 0.334,0.491 0.43,0.804c0.097,0.313 0.145,0.658 0.145,1.034l0,4.261l-1.405,0l0,-4.261c0,-0.451 -0.104,-0.801 -0.312,-1.05c-0.208,-0.25 -0.524,-0.375 -0.949,-0.375c-0.315,0 -0.607,0.073 -0.877,0.217c-0.269,0.144 -0.522,0.341 -0.758,0.591l0,4.878l-1.412,0l0,-6.697l0.854,0c0.193,0 0.315,0.09 0.368,0.269l0.098,0.618Z" style="fill:#fff;fill-rule:nonzero;"/><path d="M116.25,13.072l0,6.697l-1.412,0l0,-6.697l1.412,0Zm0.236,-2.022c0,0.127 -0.025,0.247 -0.075,0.361c-0.05,0.114 -0.119,0.213 -0.207,0.299c-0.087,0.085 -0.189,0.153 -0.305,0.203c-0.116,0.051 -0.24,0.076 -0.371,0.076c-0.127,0 -0.246,-0.025 -0.358,-0.076c-0.112,-0.05 -0.209,-0.118 -0.292,-0.203c-0.083,-0.086 -0.15,-0.185 -0.2,-0.299c-0.051,-0.114 -0.076,-0.234 -0.076,-0.361c0,-0.131 0.025,-0.254 0.076,-0.368c0.05,-0.114 0.117,-0.213 0.2,-0.299c0.083,-0.085 0.18,-0.153 0.292,-0.203c0.112,-0.05 0.231,-0.076 0.358,-0.076c0.131,0 0.255,0.026 0.371,0.076c0.116,0.05 0.218,0.118 0.305,0.203c0.088,0.086 0.157,0.185 0.207,0.299c0.05,0.114 0.075,0.237 0.075,0.368Z" style="fill:#fff;fill-rule:nonzero;"/><path d="M121.608,16.841c-0.504,0.017 -0.928,0.058 -1.274,0.121c-0.346,0.064 -0.626,0.145 -0.84,0.243c-0.215,0.099 -0.369,0.216 -0.463,0.352c-0.094,0.135 -0.141,0.284 -0.141,0.446c0,0.158 0.025,0.292 0.075,0.404c0.05,0.112 0.12,0.203 0.21,0.276c0.09,0.072 0.195,0.124 0.315,0.157c0.121,0.033 0.253,0.049 0.398,0.049c0.367,0 0.683,-0.068 0.948,-0.206c0.265,-0.138 0.522,-0.338 0.772,-0.601l0,-1.241Zm-3.743,-2.837c0.758,-0.704 1.659,-1.057 2.705,-1.057c0.386,0 0.728,0.063 1.028,0.188c0.3,0.124 0.551,0.3 0.755,0.528c0.204,0.228 0.359,0.498 0.466,0.811c0.107,0.313 0.161,0.66 0.161,1.041l0,4.254l-0.63,0c-0.136,0 -0.239,-0.02 -0.309,-0.062c-0.07,-0.042 -0.129,-0.126 -0.177,-0.253l-0.138,-0.545c-0.171,0.153 -0.339,0.29 -0.506,0.411c-0.166,0.12 -0.338,0.222 -0.515,0.305c-0.177,0.083 -0.368,0.145 -0.571,0.187c-0.204,0.042 -0.428,0.062 -0.673,0.062c-0.272,0 -0.524,-0.037 -0.759,-0.111c-0.234,-0.075 -0.436,-0.187 -0.607,-0.338c-0.171,-0.151 -0.305,-0.339 -0.404,-0.562c-0.098,-0.223 -0.147,-0.486 -0.147,-0.788c0,-0.258 0.068,-0.51 0.206,-0.755c0.138,-0.245 0.366,-0.465 0.683,-0.66c0.318,-0.194 0.736,-0.355 1.254,-0.482c0.519,-0.127 1.159,-0.199 1.921,-0.217l0,-0.446c0,-0.482 -0.103,-0.841 -0.309,-1.077c-0.206,-0.237 -0.508,-0.355 -0.906,-0.355c-0.271,0 -0.499,0.034 -0.683,0.102c-0.184,0.068 -0.343,0.141 -0.479,0.22c-0.136,0.079 -0.256,0.152 -0.361,0.22c-0.105,0.068 -0.217,0.102 -0.335,0.102c-0.096,0 -0.178,-0.025 -0.246,-0.076c-0.068,-0.05 -0.124,-0.112 -0.168,-0.187l-0.256,-0.46Z" style="fill:#fff;fill-rule:nonzero;"/></svg>
